<mxfile host="app.diagrams.net" modified="2024-02-17T17:13:20.213Z" agent="Mozilla/5.0 (Windows NT 10.0; Win64; x64) AppleWebKit/537.36 (KHTML, like Gecko) Chrome/121.0.0.0 Safari/537.36" etag="bfrDBNL9kGAermQUIAn_" version="23.1.5" type="github">
  <diagram id="R2lEEEUBdFMjLlhIrx00" name="Page-1">
    <mxGraphModel dx="1290" dy="557" grid="1" gridSize="10" guides="1" tooltips="1" connect="1" arrows="1" fold="1" page="1" pageScale="1" pageWidth="850" pageHeight="1100" math="0" shadow="0" extFonts="Permanent Marker^https://fonts.googleapis.com/css?family=Permanent+Marker">
      <root>
        <mxCell id="0" />
        <mxCell id="1" parent="0" />
        <mxCell id="R7PA764vLQKFZpUxYxBT-1" value="Employee" style="shape=table;startSize=30;container=1;collapsible=1;childLayout=tableLayout;fixedRows=1;rowLines=0;fontStyle=1;align=center;resizeLast=1;html=1;fillColor=#A8DADC;strokeColor=#457B9D;labelBackgroundColor=none;fontColor=#1D3557;rounded=0;" parent="1" vertex="1">
          <mxGeometry x="40" y="80" width="170" height="270" as="geometry" />
        </mxCell>
        <mxCell id="R7PA764vLQKFZpUxYxBT-2" value="" style="shape=tableRow;horizontal=0;startSize=0;swimlaneHead=0;swimlaneBody=0;fillColor=#A8DADC;collapsible=0;dropTarget=0;points=[[0,0.5],[1,0.5]];portConstraint=eastwest;top=0;left=0;right=0;bottom=1;strokeColor=#457B9D;labelBackgroundColor=none;fontColor=#1D3557;rounded=0;" parent="R7PA764vLQKFZpUxYxBT-1" vertex="1">
          <mxGeometry y="30" width="170" height="30" as="geometry" />
        </mxCell>
        <mxCell id="R7PA764vLQKFZpUxYxBT-3" value="PK" style="shape=partialRectangle;connectable=0;fillColor=#A8DADC;top=0;left=0;bottom=0;right=0;fontStyle=1;overflow=hidden;whiteSpace=wrap;html=1;strokeColor=#457B9D;labelBackgroundColor=none;fontColor=#1D3557;rounded=0;" parent="R7PA764vLQKFZpUxYxBT-2" vertex="1">
          <mxGeometry width="30" height="30" as="geometry">
            <mxRectangle width="30" height="30" as="alternateBounds" />
          </mxGeometry>
        </mxCell>
        <mxCell id="R7PA764vLQKFZpUxYxBT-4" value="employee_ID" style="shape=partialRectangle;connectable=0;fillColor=#A8DADC;top=0;left=0;bottom=0;right=0;align=left;spacingLeft=6;fontStyle=5;overflow=hidden;whiteSpace=wrap;html=1;strokeColor=#457B9D;labelBackgroundColor=none;fontColor=#1D3557;rounded=0;" parent="R7PA764vLQKFZpUxYxBT-2" vertex="1">
          <mxGeometry x="30" width="140" height="30" as="geometry">
            <mxRectangle width="140" height="30" as="alternateBounds" />
          </mxGeometry>
        </mxCell>
        <mxCell id="R7PA764vLQKFZpUxYxBT-5" value="" style="shape=tableRow;horizontal=0;startSize=0;swimlaneHead=0;swimlaneBody=0;fillColor=#A8DADC;collapsible=0;dropTarget=0;points=[[0,0.5],[1,0.5]];portConstraint=eastwest;top=0;left=0;right=0;bottom=0;strokeColor=#457B9D;labelBackgroundColor=none;fontColor=#1D3557;rounded=0;" parent="R7PA764vLQKFZpUxYxBT-1" vertex="1">
          <mxGeometry y="60" width="170" height="30" as="geometry" />
        </mxCell>
        <mxCell id="R7PA764vLQKFZpUxYxBT-6" value="" style="shape=partialRectangle;connectable=0;fillColor=#A8DADC;top=0;left=0;bottom=0;right=0;editable=1;overflow=hidden;whiteSpace=wrap;html=1;strokeColor=#457B9D;labelBackgroundColor=none;fontColor=#1D3557;rounded=0;" parent="R7PA764vLQKFZpUxYxBT-5" vertex="1">
          <mxGeometry width="30" height="30" as="geometry">
            <mxRectangle width="30" height="30" as="alternateBounds" />
          </mxGeometry>
        </mxCell>
        <mxCell id="R7PA764vLQKFZpUxYxBT-7" value="firstname" style="shape=partialRectangle;connectable=0;fillColor=#A8DADC;top=0;left=0;bottom=0;right=0;align=left;spacingLeft=6;overflow=hidden;whiteSpace=wrap;html=1;strokeColor=#457B9D;labelBackgroundColor=none;fontColor=#1D3557;rounded=0;" parent="R7PA764vLQKFZpUxYxBT-5" vertex="1">
          <mxGeometry x="30" width="140" height="30" as="geometry">
            <mxRectangle width="140" height="30" as="alternateBounds" />
          </mxGeometry>
        </mxCell>
        <mxCell id="R7PA764vLQKFZpUxYxBT-8" value="" style="shape=tableRow;horizontal=0;startSize=0;swimlaneHead=0;swimlaneBody=0;fillColor=#A8DADC;collapsible=0;dropTarget=0;points=[[0,0.5],[1,0.5]];portConstraint=eastwest;top=0;left=0;right=0;bottom=0;strokeColor=#457B9D;labelBackgroundColor=none;fontColor=#1D3557;rounded=0;" parent="R7PA764vLQKFZpUxYxBT-1" vertex="1">
          <mxGeometry y="90" width="170" height="30" as="geometry" />
        </mxCell>
        <mxCell id="R7PA764vLQKFZpUxYxBT-9" value="" style="shape=partialRectangle;connectable=0;fillColor=#A8DADC;top=0;left=0;bottom=0;right=0;editable=1;overflow=hidden;whiteSpace=wrap;html=1;strokeColor=#457B9D;labelBackgroundColor=none;fontColor=#1D3557;rounded=0;" parent="R7PA764vLQKFZpUxYxBT-8" vertex="1">
          <mxGeometry width="30" height="30" as="geometry">
            <mxRectangle width="30" height="30" as="alternateBounds" />
          </mxGeometry>
        </mxCell>
        <mxCell id="R7PA764vLQKFZpUxYxBT-10" value="lastname" style="shape=partialRectangle;connectable=0;fillColor=#A8DADC;top=0;left=0;bottom=0;right=0;align=left;spacingLeft=6;overflow=hidden;whiteSpace=wrap;html=1;strokeColor=#457B9D;labelBackgroundColor=none;fontColor=#1D3557;rounded=0;" parent="R7PA764vLQKFZpUxYxBT-8" vertex="1">
          <mxGeometry x="30" width="140" height="30" as="geometry">
            <mxRectangle width="140" height="30" as="alternateBounds" />
          </mxGeometry>
        </mxCell>
        <mxCell id="R7PA764vLQKFZpUxYxBT-11" value="" style="shape=tableRow;horizontal=0;startSize=0;swimlaneHead=0;swimlaneBody=0;fillColor=#A8DADC;collapsible=0;dropTarget=0;points=[[0,0.5],[1,0.5]];portConstraint=eastwest;top=0;left=0;right=0;bottom=0;strokeColor=#457B9D;labelBackgroundColor=none;fontColor=#1D3557;rounded=0;" parent="R7PA764vLQKFZpUxYxBT-1" vertex="1">
          <mxGeometry y="120" width="170" height="30" as="geometry" />
        </mxCell>
        <mxCell id="R7PA764vLQKFZpUxYxBT-12" value="&lt;br&gt;&lt;br&gt;&lt;br&gt;" style="shape=partialRectangle;connectable=0;fillColor=#A8DADC;top=0;left=0;bottom=0;right=0;editable=1;overflow=hidden;whiteSpace=wrap;html=1;strokeColor=#457B9D;labelBackgroundColor=none;fontColor=#1D3557;rounded=0;" parent="R7PA764vLQKFZpUxYxBT-11" vertex="1">
          <mxGeometry width="30" height="30" as="geometry">
            <mxRectangle width="30" height="30" as="alternateBounds" />
          </mxGeometry>
        </mxCell>
        <mxCell id="R7PA764vLQKFZpUxYxBT-13" value="gender" style="shape=partialRectangle;connectable=0;fillColor=#A8DADC;top=0;left=0;bottom=0;right=0;align=left;spacingLeft=6;overflow=hidden;whiteSpace=wrap;html=1;strokeColor=#457B9D;labelBackgroundColor=none;fontColor=#1D3557;rounded=0;" parent="R7PA764vLQKFZpUxYxBT-11" vertex="1">
          <mxGeometry x="30" width="140" height="30" as="geometry">
            <mxRectangle width="140" height="30" as="alternateBounds" />
          </mxGeometry>
        </mxCell>
        <mxCell id="R7PA764vLQKFZpUxYxBT-15" value="" style="shape=tableRow;horizontal=0;startSize=0;swimlaneHead=0;swimlaneBody=0;fillColor=#A8DADC;collapsible=0;dropTarget=0;points=[[0,0.5],[1,0.5]];portConstraint=eastwest;top=0;left=0;right=0;bottom=0;strokeColor=#457B9D;labelBackgroundColor=none;fontColor=#1D3557;rounded=0;" parent="R7PA764vLQKFZpUxYxBT-1" vertex="1">
          <mxGeometry y="150" width="170" height="30" as="geometry" />
        </mxCell>
        <mxCell id="R7PA764vLQKFZpUxYxBT-16" value="" style="shape=partialRectangle;connectable=0;fillColor=#A8DADC;top=0;left=0;bottom=0;right=0;editable=1;overflow=hidden;strokeColor=#457B9D;labelBackgroundColor=none;fontColor=#1D3557;rounded=0;" parent="R7PA764vLQKFZpUxYxBT-15" vertex="1">
          <mxGeometry width="30" height="30" as="geometry">
            <mxRectangle width="30" height="30" as="alternateBounds" />
          </mxGeometry>
        </mxCell>
        <mxCell id="R7PA764vLQKFZpUxYxBT-17" value="age" style="shape=partialRectangle;connectable=0;fillColor=#A8DADC;top=0;left=0;bottom=0;right=0;align=left;spacingLeft=6;overflow=hidden;strokeColor=#457B9D;labelBackgroundColor=none;fontColor=#1D3557;rounded=0;" parent="R7PA764vLQKFZpUxYxBT-15" vertex="1">
          <mxGeometry x="30" width="140" height="30" as="geometry">
            <mxRectangle width="140" height="30" as="alternateBounds" />
          </mxGeometry>
        </mxCell>
        <mxCell id="R7PA764vLQKFZpUxYxBT-19" value="" style="shape=tableRow;horizontal=0;startSize=0;swimlaneHead=0;swimlaneBody=0;fillColor=#A8DADC;collapsible=0;dropTarget=0;points=[[0,0.5],[1,0.5]];portConstraint=eastwest;top=0;left=0;right=0;bottom=0;strokeColor=#457B9D;labelBackgroundColor=none;fontColor=#1D3557;rounded=0;" parent="R7PA764vLQKFZpUxYxBT-1" vertex="1">
          <mxGeometry y="180" width="170" height="30" as="geometry" />
        </mxCell>
        <mxCell id="R7PA764vLQKFZpUxYxBT-20" value="" style="shape=partialRectangle;connectable=0;fillColor=#A8DADC;top=0;left=0;bottom=0;right=0;editable=1;overflow=hidden;strokeColor=#457B9D;labelBackgroundColor=none;fontColor=#1D3557;rounded=0;" parent="R7PA764vLQKFZpUxYxBT-19" vertex="1">
          <mxGeometry width="30" height="30" as="geometry">
            <mxRectangle width="30" height="30" as="alternateBounds" />
          </mxGeometry>
        </mxCell>
        <mxCell id="R7PA764vLQKFZpUxYxBT-21" value="contact_add" style="shape=partialRectangle;connectable=0;fillColor=#A8DADC;top=0;left=0;bottom=0;right=0;align=left;spacingLeft=6;overflow=hidden;strokeColor=#457B9D;labelBackgroundColor=none;fontColor=#1D3557;rounded=0;" parent="R7PA764vLQKFZpUxYxBT-19" vertex="1">
          <mxGeometry x="30" width="140" height="30" as="geometry">
            <mxRectangle width="140" height="30" as="alternateBounds" />
          </mxGeometry>
        </mxCell>
        <mxCell id="R7PA764vLQKFZpUxYxBT-27" value="" style="shape=tableRow;horizontal=0;startSize=0;swimlaneHead=0;swimlaneBody=0;fillColor=#A8DADC;collapsible=0;dropTarget=0;points=[[0,0.5],[1,0.5]];portConstraint=eastwest;top=0;left=0;right=0;bottom=0;strokeColor=#457B9D;labelBackgroundColor=none;fontColor=#1D3557;rounded=0;" parent="R7PA764vLQKFZpUxYxBT-1" vertex="1">
          <mxGeometry y="210" width="170" height="30" as="geometry" />
        </mxCell>
        <mxCell id="R7PA764vLQKFZpUxYxBT-28" value="" style="shape=partialRectangle;connectable=0;fillColor=#A8DADC;top=0;left=0;bottom=0;right=0;editable=1;overflow=hidden;strokeColor=#457B9D;labelBackgroundColor=none;fontColor=#1D3557;rounded=0;" parent="R7PA764vLQKFZpUxYxBT-27" vertex="1">
          <mxGeometry width="30" height="30" as="geometry">
            <mxRectangle width="30" height="30" as="alternateBounds" />
          </mxGeometry>
        </mxCell>
        <mxCell id="R7PA764vLQKFZpUxYxBT-29" value="emp_email" style="shape=partialRectangle;connectable=0;fillColor=#A8DADC;top=0;left=0;bottom=0;right=0;align=left;spacingLeft=6;overflow=hidden;strokeColor=#457B9D;labelBackgroundColor=none;fontColor=#1D3557;rounded=0;" parent="R7PA764vLQKFZpUxYxBT-27" vertex="1">
          <mxGeometry x="30" width="140" height="30" as="geometry">
            <mxRectangle width="140" height="30" as="alternateBounds" />
          </mxGeometry>
        </mxCell>
        <mxCell id="R7PA764vLQKFZpUxYxBT-31" value="" style="shape=tableRow;horizontal=0;startSize=0;swimlaneHead=0;swimlaneBody=0;fillColor=#A8DADC;collapsible=0;dropTarget=0;points=[[0,0.5],[1,0.5]];portConstraint=eastwest;top=0;left=0;right=0;bottom=0;strokeColor=#457B9D;labelBackgroundColor=none;fontColor=#1D3557;rounded=0;" parent="R7PA764vLQKFZpUxYxBT-1" vertex="1">
          <mxGeometry y="240" width="170" height="30" as="geometry" />
        </mxCell>
        <mxCell id="R7PA764vLQKFZpUxYxBT-32" value="" style="shape=partialRectangle;connectable=0;fillColor=#A8DADC;top=0;left=0;bottom=0;right=0;editable=1;overflow=hidden;strokeColor=#457B9D;labelBackgroundColor=none;fontColor=#1D3557;rounded=0;" parent="R7PA764vLQKFZpUxYxBT-31" vertex="1">
          <mxGeometry width="30" height="30" as="geometry">
            <mxRectangle width="30" height="30" as="alternateBounds" />
          </mxGeometry>
        </mxCell>
        <mxCell id="R7PA764vLQKFZpUxYxBT-33" value="emp_pass" style="shape=partialRectangle;connectable=0;fillColor=#A8DADC;top=0;left=0;bottom=0;right=0;align=left;spacingLeft=6;overflow=hidden;strokeColor=#457B9D;labelBackgroundColor=none;fontColor=#1D3557;rounded=0;" parent="R7PA764vLQKFZpUxYxBT-31" vertex="1">
          <mxGeometry x="30" width="140" height="30" as="geometry">
            <mxRectangle width="140" height="30" as="alternateBounds" />
          </mxGeometry>
        </mxCell>
        <mxCell id="R7PA764vLQKFZpUxYxBT-34" value="Attendance Reports" style="shape=table;startSize=30;container=1;collapsible=1;childLayout=tableLayout;fixedRows=1;rowLines=0;fontStyle=1;align=center;resizeLast=1;html=1;whiteSpace=wrap;fillColor=#A8DADC;strokeColor=#457B9D;labelBackgroundColor=none;fontColor=#1D3557;rounded=0;" parent="1" vertex="1">
          <mxGeometry x="620" y="80" width="180" height="260" as="geometry" />
        </mxCell>
        <mxCell id="R7PA764vLQKFZpUxYxBT-35" value="" style="shape=tableRow;horizontal=0;startSize=0;swimlaneHead=0;swimlaneBody=0;fillColor=#A8DADC;collapsible=0;dropTarget=0;points=[[0,0.5],[1,0.5]];portConstraint=eastwest;top=0;left=0;right=0;bottom=0;html=1;strokeColor=#457B9D;labelBackgroundColor=none;fontColor=#1D3557;rounded=0;" parent="R7PA764vLQKFZpUxYxBT-34" vertex="1">
          <mxGeometry y="30" width="180" height="20" as="geometry" />
        </mxCell>
        <mxCell id="R7PA764vLQKFZpUxYxBT-36" value="PK" style="shape=partialRectangle;connectable=0;fillColor=#A8DADC;top=0;left=0;bottom=0;right=0;fontStyle=1;overflow=hidden;html=1;whiteSpace=wrap;strokeColor=#457B9D;labelBackgroundColor=none;fontColor=#1D3557;rounded=0;" parent="R7PA764vLQKFZpUxYxBT-35" vertex="1">
          <mxGeometry width="60" height="20" as="geometry">
            <mxRectangle width="60" height="20" as="alternateBounds" />
          </mxGeometry>
        </mxCell>
        <mxCell id="R7PA764vLQKFZpUxYxBT-37" value="report_ID" style="shape=partialRectangle;connectable=0;fillColor=#A8DADC;top=0;left=0;bottom=0;right=0;align=left;spacingLeft=6;fontStyle=5;overflow=hidden;html=1;whiteSpace=wrap;strokeColor=#457B9D;labelBackgroundColor=none;fontColor=#1D3557;rounded=0;" parent="R7PA764vLQKFZpUxYxBT-35" vertex="1">
          <mxGeometry x="60" width="120" height="20" as="geometry">
            <mxRectangle width="120" height="20" as="alternateBounds" />
          </mxGeometry>
        </mxCell>
        <mxCell id="R7PA764vLQKFZpUxYxBT-41" value="" style="shape=tableRow;horizontal=0;startSize=0;swimlaneHead=0;swimlaneBody=0;fillColor=#A8DADC;collapsible=0;dropTarget=0;points=[[0,0.5],[1,0.5]];portConstraint=eastwest;top=0;left=0;right=0;bottom=0;html=1;strokeColor=#457B9D;labelBackgroundColor=none;fontColor=#1D3557;rounded=0;" parent="R7PA764vLQKFZpUxYxBT-34" vertex="1">
          <mxGeometry y="50" width="180" height="30" as="geometry" />
        </mxCell>
        <mxCell id="R7PA764vLQKFZpUxYxBT-42" value="FK" style="shape=partialRectangle;connectable=0;fillColor=#A8DADC;top=0;left=0;bottom=0;right=0;editable=1;overflow=hidden;html=1;whiteSpace=wrap;strokeColor=#457B9D;labelBackgroundColor=none;fontColor=#1D3557;rounded=0;" parent="R7PA764vLQKFZpUxYxBT-41" vertex="1">
          <mxGeometry width="60" height="30" as="geometry">
            <mxRectangle width="60" height="30" as="alternateBounds" />
          </mxGeometry>
        </mxCell>
        <mxCell id="R7PA764vLQKFZpUxYxBT-43" value="employee_ID" style="shape=partialRectangle;connectable=0;fillColor=#A8DADC;top=0;left=0;bottom=0;right=0;align=left;spacingLeft=6;overflow=hidden;html=1;whiteSpace=wrap;strokeColor=#457B9D;labelBackgroundColor=none;fontColor=#1D3557;rounded=0;" parent="R7PA764vLQKFZpUxYxBT-41" vertex="1">
          <mxGeometry x="60" width="120" height="30" as="geometry">
            <mxRectangle width="120" height="30" as="alternateBounds" />
          </mxGeometry>
        </mxCell>
        <mxCell id="R7PA764vLQKFZpUxYxBT-44" value="" style="shape=tableRow;horizontal=0;startSize=0;swimlaneHead=0;swimlaneBody=0;fillColor=#A8DADC;collapsible=0;dropTarget=0;points=[[0,0.5],[1,0.5]];portConstraint=eastwest;top=0;left=0;right=0;bottom=0;html=1;strokeColor=#457B9D;labelBackgroundColor=none;fontColor=#1D3557;rounded=0;" parent="R7PA764vLQKFZpUxYxBT-34" vertex="1">
          <mxGeometry y="80" width="180" height="30" as="geometry" />
        </mxCell>
        <mxCell id="R7PA764vLQKFZpUxYxBT-45" value="FK" style="shape=partialRectangle;connectable=0;fillColor=#A8DADC;top=0;left=0;bottom=0;right=0;editable=1;overflow=hidden;html=1;whiteSpace=wrap;strokeColor=#457B9D;labelBackgroundColor=none;fontColor=#1D3557;rounded=0;" parent="R7PA764vLQKFZpUxYxBT-44" vertex="1">
          <mxGeometry width="60" height="30" as="geometry">
            <mxRectangle width="60" height="30" as="alternateBounds" />
          </mxGeometry>
        </mxCell>
        <mxCell id="R7PA764vLQKFZpUxYxBT-46" value="duty_ID" style="shape=partialRectangle;connectable=0;fillColor=#A8DADC;top=0;left=0;bottom=0;right=0;align=left;spacingLeft=6;overflow=hidden;html=1;whiteSpace=wrap;strokeColor=#457B9D;labelBackgroundColor=none;fontColor=#1D3557;rounded=0;" parent="R7PA764vLQKFZpUxYxBT-44" vertex="1">
          <mxGeometry x="60" width="120" height="30" as="geometry">
            <mxRectangle width="120" height="30" as="alternateBounds" />
          </mxGeometry>
        </mxCell>
        <mxCell id="R7PA764vLQKFZpUxYxBT-47" value="" style="endArrow=none;html=1;rounded=0;exitX=-0.002;exitY=-0.02;exitDx=0;exitDy=0;exitPerimeter=0;entryX=0.994;entryY=-0.003;entryDx=0;entryDy=0;entryPerimeter=0;fillColor=#A8DADC;strokeColor=#457B9D;labelBackgroundColor=none;fontColor=default;" parent="R7PA764vLQKFZpUxYxBT-34" source="R7PA764vLQKFZpUxYxBT-41" target="R7PA764vLQKFZpUxYxBT-41" edge="1">
          <mxGeometry width="50" height="50" relative="1" as="geometry">
            <mxPoint x="65" y="80" as="sourcePoint" />
            <mxPoint x="179" y="51" as="targetPoint" />
          </mxGeometry>
        </mxCell>
        <mxCell id="R7PA764vLQKFZpUxYxBT-53" value="" style="shape=tableRow;horizontal=0;startSize=0;swimlaneHead=0;swimlaneBody=0;fillColor=#A8DADC;collapsible=0;dropTarget=0;points=[[0,0.5],[1,0.5]];portConstraint=eastwest;top=0;left=0;right=0;bottom=0;strokeColor=#457B9D;labelBackgroundColor=none;fontColor=#1D3557;rounded=0;" parent="R7PA764vLQKFZpUxYxBT-34" vertex="1">
          <mxGeometry y="110" width="180" height="30" as="geometry" />
        </mxCell>
        <mxCell id="R7PA764vLQKFZpUxYxBT-54" value="FK" style="shape=partialRectangle;connectable=0;fillColor=#A8DADC;top=0;left=0;bottom=0;right=0;editable=1;overflow=hidden;strokeColor=#457B9D;labelBackgroundColor=none;fontColor=#1D3557;rounded=0;" parent="R7PA764vLQKFZpUxYxBT-53" vertex="1">
          <mxGeometry width="60" height="30" as="geometry">
            <mxRectangle width="60" height="30" as="alternateBounds" />
          </mxGeometry>
        </mxCell>
        <mxCell id="R7PA764vLQKFZpUxYxBT-55" value="leave_ID" style="shape=partialRectangle;connectable=0;fillColor=#A8DADC;top=0;left=0;bottom=0;right=0;align=left;spacingLeft=6;overflow=hidden;strokeColor=#457B9D;labelBackgroundColor=none;fontColor=#1D3557;rounded=0;" parent="R7PA764vLQKFZpUxYxBT-53" vertex="1">
          <mxGeometry x="60" width="120" height="30" as="geometry">
            <mxRectangle width="120" height="30" as="alternateBounds" />
          </mxGeometry>
        </mxCell>
        <mxCell id="R7PA764vLQKFZpUxYxBT-49" value="" style="shape=tableRow;horizontal=0;startSize=0;swimlaneHead=0;swimlaneBody=0;fillColor=#A8DADC;collapsible=0;dropTarget=0;points=[[0,0.5],[1,0.5]];portConstraint=eastwest;top=0;left=0;right=0;bottom=0;strokeColor=#457B9D;labelBackgroundColor=none;fontColor=#1D3557;rounded=0;" parent="R7PA764vLQKFZpUxYxBT-34" vertex="1">
          <mxGeometry y="140" width="180" height="30" as="geometry" />
        </mxCell>
        <mxCell id="R7PA764vLQKFZpUxYxBT-50" value="FK" style="shape=partialRectangle;connectable=0;fillColor=#A8DADC;top=0;left=0;bottom=0;right=0;editable=1;overflow=hidden;strokeColor=#457B9D;labelBackgroundColor=none;fontColor=#1D3557;rounded=0;" parent="R7PA764vLQKFZpUxYxBT-49" vertex="1">
          <mxGeometry width="60" height="30" as="geometry">
            <mxRectangle width="60" height="30" as="alternateBounds" />
          </mxGeometry>
        </mxCell>
        <mxCell id="R7PA764vLQKFZpUxYxBT-51" value="job_ID" style="shape=partialRectangle;connectable=0;fillColor=#A8DADC;top=0;left=0;bottom=0;right=0;align=left;spacingLeft=6;overflow=hidden;strokeColor=#457B9D;labelBackgroundColor=none;fontColor=#1D3557;rounded=0;" parent="R7PA764vLQKFZpUxYxBT-49" vertex="1">
          <mxGeometry x="60" width="120" height="30" as="geometry">
            <mxRectangle width="120" height="30" as="alternateBounds" />
          </mxGeometry>
        </mxCell>
        <mxCell id="R7PA764vLQKFZpUxYxBT-57" value="" style="shape=tableRow;horizontal=0;startSize=0;swimlaneHead=0;swimlaneBody=0;fillColor=#A8DADC;collapsible=0;dropTarget=0;points=[[0,0.5],[1,0.5]];portConstraint=eastwest;top=0;left=0;right=0;bottom=0;strokeColor=#457B9D;labelBackgroundColor=none;fontColor=#1D3557;rounded=0;" parent="R7PA764vLQKFZpUxYxBT-34" vertex="1">
          <mxGeometry y="170" width="180" height="30" as="geometry" />
        </mxCell>
        <mxCell id="R7PA764vLQKFZpUxYxBT-58" value="" style="shape=partialRectangle;connectable=0;fillColor=#A8DADC;top=0;left=0;bottom=0;right=0;editable=1;overflow=hidden;strokeColor=#457B9D;labelBackgroundColor=none;fontColor=#1D3557;rounded=0;" parent="R7PA764vLQKFZpUxYxBT-57" vertex="1">
          <mxGeometry width="60" height="30" as="geometry">
            <mxRectangle width="60" height="30" as="alternateBounds" />
          </mxGeometry>
        </mxCell>
        <mxCell id="R7PA764vLQKFZpUxYxBT-59" value="total_labor" style="shape=partialRectangle;connectable=0;fillColor=#A8DADC;top=0;left=0;bottom=0;right=0;align=left;spacingLeft=6;overflow=hidden;strokeColor=#457B9D;labelBackgroundColor=none;fontColor=#1D3557;rounded=0;" parent="R7PA764vLQKFZpUxYxBT-57" vertex="1">
          <mxGeometry x="60" width="120" height="30" as="geometry">
            <mxRectangle width="120" height="30" as="alternateBounds" />
          </mxGeometry>
        </mxCell>
        <mxCell id="R7PA764vLQKFZpUxYxBT-61" value="" style="shape=tableRow;horizontal=0;startSize=0;swimlaneHead=0;swimlaneBody=0;fillColor=#A8DADC;collapsible=0;dropTarget=0;points=[[0,0.5],[1,0.5]];portConstraint=eastwest;top=0;left=0;right=0;bottom=0;strokeColor=#457B9D;labelBackgroundColor=none;fontColor=#1D3557;rounded=0;" parent="R7PA764vLQKFZpUxYxBT-34" vertex="1">
          <mxGeometry y="200" width="180" height="30" as="geometry" />
        </mxCell>
        <mxCell id="R7PA764vLQKFZpUxYxBT-62" value="" style="shape=partialRectangle;connectable=0;fillColor=#A8DADC;top=0;left=0;bottom=0;right=0;editable=1;overflow=hidden;strokeColor=#457B9D;labelBackgroundColor=none;fontColor=#1D3557;rounded=0;" parent="R7PA764vLQKFZpUxYxBT-61" vertex="1">
          <mxGeometry width="60" height="30" as="geometry">
            <mxRectangle width="60" height="30" as="alternateBounds" />
          </mxGeometry>
        </mxCell>
        <mxCell id="R7PA764vLQKFZpUxYxBT-63" value="salary" style="shape=partialRectangle;connectable=0;fillColor=#A8DADC;top=0;left=0;bottom=0;right=0;align=left;spacingLeft=6;overflow=hidden;strokeColor=#457B9D;labelBackgroundColor=none;fontColor=#1D3557;rounded=0;" parent="R7PA764vLQKFZpUxYxBT-61" vertex="1">
          <mxGeometry x="60" width="120" height="30" as="geometry">
            <mxRectangle width="120" height="30" as="alternateBounds" />
          </mxGeometry>
        </mxCell>
        <mxCell id="R7PA764vLQKFZpUxYxBT-65" value="" style="shape=tableRow;horizontal=0;startSize=0;swimlaneHead=0;swimlaneBody=0;fillColor=#A8DADC;collapsible=0;dropTarget=0;points=[[0,0.5],[1,0.5]];portConstraint=eastwest;top=0;left=0;right=0;bottom=0;strokeColor=#457B9D;labelBackgroundColor=none;fontColor=#1D3557;rounded=0;" parent="R7PA764vLQKFZpUxYxBT-34" vertex="1">
          <mxGeometry y="230" width="180" height="30" as="geometry" />
        </mxCell>
        <mxCell id="R7PA764vLQKFZpUxYxBT-66" value="" style="shape=partialRectangle;connectable=0;fillColor=#A8DADC;top=0;left=0;bottom=0;right=0;editable=1;overflow=hidden;strokeColor=#457B9D;labelBackgroundColor=none;fontColor=#1D3557;rounded=0;" parent="R7PA764vLQKFZpUxYxBT-65" vertex="1">
          <mxGeometry width="60" height="30" as="geometry">
            <mxRectangle width="60" height="30" as="alternateBounds" />
          </mxGeometry>
        </mxCell>
        <mxCell id="R7PA764vLQKFZpUxYxBT-67" value="date" style="shape=partialRectangle;connectable=0;fillColor=#A8DADC;top=0;left=0;bottom=0;right=0;align=left;spacingLeft=6;overflow=hidden;strokeColor=#457B9D;labelBackgroundColor=none;fontColor=#1D3557;rounded=0;" parent="R7PA764vLQKFZpUxYxBT-65" vertex="1">
          <mxGeometry x="60" width="120" height="30" as="geometry">
            <mxRectangle width="120" height="30" as="alternateBounds" />
          </mxGeometry>
        </mxCell>
        <mxCell id="R7PA764vLQKFZpUxYxBT-84" value="Job TItle" style="shape=table;startSize=30;container=1;collapsible=1;childLayout=tableLayout;fixedRows=1;rowLines=0;fontStyle=1;align=center;resizeLast=1;html=1;fillColor=#A8DADC;strokeColor=#457B9D;labelBackgroundColor=none;fontColor=#1D3557;rounded=0;" parent="1" vertex="1">
          <mxGeometry x="620" y="450" width="180" height="140" as="geometry" />
        </mxCell>
        <mxCell id="R7PA764vLQKFZpUxYxBT-85" value="" style="shape=tableRow;horizontal=0;startSize=0;swimlaneHead=0;swimlaneBody=0;fillColor=#A8DADC;collapsible=0;dropTarget=0;points=[[0,0.5],[1,0.5]];portConstraint=eastwest;top=0;left=0;right=0;bottom=1;strokeColor=#457B9D;labelBackgroundColor=none;fontColor=#1D3557;rounded=0;" parent="R7PA764vLQKFZpUxYxBT-84" vertex="1">
          <mxGeometry y="30" width="180" height="30" as="geometry" />
        </mxCell>
        <mxCell id="R7PA764vLQKFZpUxYxBT-86" value="PK" style="shape=partialRectangle;connectable=0;fillColor=#A8DADC;top=0;left=0;bottom=0;right=0;fontStyle=1;overflow=hidden;whiteSpace=wrap;html=1;strokeColor=#457B9D;labelBackgroundColor=none;fontColor=#1D3557;rounded=0;" parent="R7PA764vLQKFZpUxYxBT-85" vertex="1">
          <mxGeometry width="30" height="30" as="geometry">
            <mxRectangle width="30" height="30" as="alternateBounds" />
          </mxGeometry>
        </mxCell>
        <mxCell id="R7PA764vLQKFZpUxYxBT-87" value="job_id" style="shape=partialRectangle;connectable=0;fillColor=#A8DADC;top=0;left=0;bottom=0;right=0;align=left;spacingLeft=6;fontStyle=5;overflow=hidden;whiteSpace=wrap;html=1;strokeColor=#457B9D;labelBackgroundColor=none;fontColor=#1D3557;rounded=0;" parent="R7PA764vLQKFZpUxYxBT-85" vertex="1">
          <mxGeometry x="30" width="150" height="30" as="geometry">
            <mxRectangle width="150" height="30" as="alternateBounds" />
          </mxGeometry>
        </mxCell>
        <mxCell id="R7PA764vLQKFZpUxYxBT-88" value="" style="shape=tableRow;horizontal=0;startSize=0;swimlaneHead=0;swimlaneBody=0;fillColor=#A8DADC;collapsible=0;dropTarget=0;points=[[0,0.5],[1,0.5]];portConstraint=eastwest;top=0;left=0;right=0;bottom=0;strokeColor=#457B9D;labelBackgroundColor=none;fontColor=#1D3557;rounded=0;" parent="R7PA764vLQKFZpUxYxBT-84" vertex="1">
          <mxGeometry y="60" width="180" height="30" as="geometry" />
        </mxCell>
        <mxCell id="R7PA764vLQKFZpUxYxBT-89" value="" style="shape=partialRectangle;connectable=0;fillColor=#A8DADC;top=0;left=0;bottom=0;right=0;editable=1;overflow=hidden;whiteSpace=wrap;html=1;strokeColor=#457B9D;labelBackgroundColor=none;fontColor=#1D3557;rounded=0;" parent="R7PA764vLQKFZpUxYxBT-88" vertex="1">
          <mxGeometry width="30" height="30" as="geometry">
            <mxRectangle width="30" height="30" as="alternateBounds" />
          </mxGeometry>
        </mxCell>
        <mxCell id="R7PA764vLQKFZpUxYxBT-90" value="job_title" style="shape=partialRectangle;connectable=0;fillColor=#A8DADC;top=0;left=0;bottom=0;right=0;align=left;spacingLeft=6;overflow=hidden;whiteSpace=wrap;html=1;strokeColor=#457B9D;labelBackgroundColor=none;fontColor=#1D3557;rounded=0;" parent="R7PA764vLQKFZpUxYxBT-88" vertex="1">
          <mxGeometry x="30" width="150" height="30" as="geometry">
            <mxRectangle width="150" height="30" as="alternateBounds" />
          </mxGeometry>
        </mxCell>
        <mxCell id="R7PA764vLQKFZpUxYxBT-91" value="" style="shape=tableRow;horizontal=0;startSize=0;swimlaneHead=0;swimlaneBody=0;fillColor=#A8DADC;collapsible=0;dropTarget=0;points=[[0,0.5],[1,0.5]];portConstraint=eastwest;top=0;left=0;right=0;bottom=0;strokeColor=#457B9D;labelBackgroundColor=none;fontColor=#1D3557;rounded=0;" parent="R7PA764vLQKFZpUxYxBT-84" vertex="1">
          <mxGeometry y="90" width="180" height="30" as="geometry" />
        </mxCell>
        <mxCell id="R7PA764vLQKFZpUxYxBT-92" value="FK" style="shape=partialRectangle;connectable=0;fillColor=#A8DADC;top=0;left=0;bottom=0;right=0;editable=1;overflow=hidden;whiteSpace=wrap;html=1;strokeColor=#457B9D;labelBackgroundColor=none;fontColor=#1D3557;rounded=0;" parent="R7PA764vLQKFZpUxYxBT-91" vertex="1">
          <mxGeometry width="30" height="30" as="geometry">
            <mxRectangle width="30" height="30" as="alternateBounds" />
          </mxGeometry>
        </mxCell>
        <mxCell id="R7PA764vLQKFZpUxYxBT-93" value="dept_ID" style="shape=partialRectangle;connectable=0;fillColor=#A8DADC;top=0;left=0;bottom=0;right=0;align=left;spacingLeft=6;overflow=hidden;whiteSpace=wrap;html=1;strokeColor=#457B9D;labelBackgroundColor=none;fontColor=#1D3557;rounded=0;" parent="R7PA764vLQKFZpUxYxBT-91" vertex="1">
          <mxGeometry x="30" width="150" height="30" as="geometry">
            <mxRectangle width="150" height="30" as="alternateBounds" />
          </mxGeometry>
        </mxCell>
        <mxCell id="R7PA764vLQKFZpUxYxBT-94" value="" style="shape=tableRow;horizontal=0;startSize=0;swimlaneHead=0;swimlaneBody=0;fillColor=#A8DADC;collapsible=0;dropTarget=0;points=[[0,0.5],[1,0.5]];portConstraint=eastwest;top=0;left=0;right=0;bottom=0;strokeColor=#457B9D;labelBackgroundColor=none;fontColor=#1D3557;rounded=0;" parent="R7PA764vLQKFZpUxYxBT-84" vertex="1">
          <mxGeometry y="120" width="180" height="20" as="geometry" />
        </mxCell>
        <mxCell id="R7PA764vLQKFZpUxYxBT-95" value="" style="shape=partialRectangle;connectable=0;fillColor=#A8DADC;top=0;left=0;bottom=0;right=0;editable=1;overflow=hidden;whiteSpace=wrap;html=1;strokeColor=#457B9D;labelBackgroundColor=none;fontColor=#1D3557;rounded=0;" parent="R7PA764vLQKFZpUxYxBT-94" vertex="1">
          <mxGeometry width="30" height="20" as="geometry">
            <mxRectangle width="30" height="20" as="alternateBounds" />
          </mxGeometry>
        </mxCell>
        <mxCell id="R7PA764vLQKFZpUxYxBT-96" value="" style="shape=partialRectangle;connectable=0;fillColor=#A8DADC;top=0;left=0;bottom=0;right=0;align=left;spacingLeft=6;overflow=hidden;whiteSpace=wrap;html=1;strokeColor=#457B9D;labelBackgroundColor=none;fontColor=#1D3557;rounded=0;" parent="R7PA764vLQKFZpUxYxBT-94" vertex="1">
          <mxGeometry x="30" width="150" height="20" as="geometry">
            <mxRectangle width="150" height="20" as="alternateBounds" />
          </mxGeometry>
        </mxCell>
        <mxCell id="R7PA764vLQKFZpUxYxBT-116" value="Department" style="shape=table;startSize=30;container=1;collapsible=1;childLayout=tableLayout;fixedRows=1;rowLines=0;fontStyle=1;align=center;resizeLast=1;html=1;fillColor=#A8DADC;strokeColor=#457B9D;labelBackgroundColor=none;fontColor=#1D3557;rounded=0;" parent="1" vertex="1">
          <mxGeometry x="305.5" y="440" width="189" height="100" as="geometry" />
        </mxCell>
        <mxCell id="R7PA764vLQKFZpUxYxBT-117" value="" style="shape=tableRow;horizontal=0;startSize=0;swimlaneHead=0;swimlaneBody=0;fillColor=#A8DADC;collapsible=0;dropTarget=0;points=[[0,0.5],[1,0.5]];portConstraint=eastwest;top=0;left=0;right=0;bottom=1;strokeColor=#457B9D;labelBackgroundColor=none;fontColor=#1D3557;rounded=0;" parent="R7PA764vLQKFZpUxYxBT-116" vertex="1">
          <mxGeometry y="30" width="189" height="30" as="geometry" />
        </mxCell>
        <mxCell id="R7PA764vLQKFZpUxYxBT-118" value="PK" style="shape=partialRectangle;connectable=0;fillColor=#A8DADC;top=0;left=0;bottom=0;right=0;fontStyle=1;overflow=hidden;whiteSpace=wrap;html=1;strokeColor=#457B9D;labelBackgroundColor=none;fontColor=#1D3557;rounded=0;" parent="R7PA764vLQKFZpUxYxBT-117" vertex="1">
          <mxGeometry width="30" height="30" as="geometry">
            <mxRectangle width="30" height="30" as="alternateBounds" />
          </mxGeometry>
        </mxCell>
        <mxCell id="R7PA764vLQKFZpUxYxBT-119" value="dept_ID" style="shape=partialRectangle;connectable=0;fillColor=#A8DADC;top=0;left=0;bottom=0;right=0;align=left;spacingLeft=6;fontStyle=5;overflow=hidden;whiteSpace=wrap;html=1;strokeColor=#457B9D;labelBackgroundColor=none;fontColor=#1D3557;rounded=0;" parent="R7PA764vLQKFZpUxYxBT-117" vertex="1">
          <mxGeometry x="30" width="159" height="30" as="geometry">
            <mxRectangle width="159" height="30" as="alternateBounds" />
          </mxGeometry>
        </mxCell>
        <mxCell id="R7PA764vLQKFZpUxYxBT-120" value="" style="shape=tableRow;horizontal=0;startSize=0;swimlaneHead=0;swimlaneBody=0;fillColor=#A8DADC;collapsible=0;dropTarget=0;points=[[0,0.5],[1,0.5]];portConstraint=eastwest;top=0;left=0;right=0;bottom=0;strokeColor=#457B9D;labelBackgroundColor=none;fontColor=#1D3557;rounded=0;" parent="R7PA764vLQKFZpUxYxBT-116" vertex="1">
          <mxGeometry y="60" width="189" height="20" as="geometry" />
        </mxCell>
        <mxCell id="R7PA764vLQKFZpUxYxBT-121" value="" style="shape=partialRectangle;connectable=0;fillColor=#A8DADC;top=0;left=0;bottom=0;right=0;editable=1;overflow=hidden;whiteSpace=wrap;html=1;strokeColor=#457B9D;labelBackgroundColor=none;fontColor=#1D3557;rounded=0;" parent="R7PA764vLQKFZpUxYxBT-120" vertex="1">
          <mxGeometry width="30" height="20" as="geometry">
            <mxRectangle width="30" height="20" as="alternateBounds" />
          </mxGeometry>
        </mxCell>
        <mxCell id="R7PA764vLQKFZpUxYxBT-122" value="department_name" style="shape=partialRectangle;connectable=0;fillColor=#A8DADC;top=0;left=0;bottom=0;right=0;align=left;spacingLeft=6;overflow=hidden;whiteSpace=wrap;html=1;strokeColor=#457B9D;labelBackgroundColor=none;fontColor=#1D3557;rounded=0;" parent="R7PA764vLQKFZpUxYxBT-120" vertex="1">
          <mxGeometry x="30" width="159" height="20" as="geometry">
            <mxRectangle width="159" height="20" as="alternateBounds" />
          </mxGeometry>
        </mxCell>
        <mxCell id="R7PA764vLQKFZpUxYxBT-126" value="" style="shape=tableRow;horizontal=0;startSize=0;swimlaneHead=0;swimlaneBody=0;fillColor=#A8DADC;collapsible=0;dropTarget=0;points=[[0,0.5],[1,0.5]];portConstraint=eastwest;top=0;left=0;right=0;bottom=0;strokeColor=#457B9D;labelBackgroundColor=none;fontColor=#1D3557;rounded=0;" parent="R7PA764vLQKFZpUxYxBT-116" vertex="1">
          <mxGeometry y="80" width="189" height="20" as="geometry" />
        </mxCell>
        <mxCell id="R7PA764vLQKFZpUxYxBT-127" value="" style="shape=partialRectangle;connectable=0;fillColor=#A8DADC;top=0;left=0;bottom=0;right=0;editable=1;overflow=hidden;whiteSpace=wrap;html=1;strokeColor=#457B9D;labelBackgroundColor=none;fontColor=#1D3557;rounded=0;" parent="R7PA764vLQKFZpUxYxBT-126" vertex="1">
          <mxGeometry width="30" height="20" as="geometry">
            <mxRectangle width="30" height="20" as="alternateBounds" />
          </mxGeometry>
        </mxCell>
        <mxCell id="R7PA764vLQKFZpUxYxBT-128" value="" style="shape=partialRectangle;connectable=0;fillColor=#A8DADC;top=0;left=0;bottom=0;right=0;align=left;spacingLeft=6;overflow=hidden;whiteSpace=wrap;html=1;strokeColor=#457B9D;labelBackgroundColor=none;fontColor=#1D3557;rounded=0;" parent="R7PA764vLQKFZpUxYxBT-126" vertex="1">
          <mxGeometry x="30" width="159" height="20" as="geometry">
            <mxRectangle width="159" height="20" as="alternateBounds" />
          </mxGeometry>
        </mxCell>
        <mxCell id="R7PA764vLQKFZpUxYxBT-129" value="Leave" style="shape=table;startSize=30;container=1;collapsible=1;childLayout=tableLayout;fixedRows=1;rowLines=0;fontStyle=1;align=center;resizeLast=1;html=1;fillColor=#A8DADC;strokeColor=#457B9D;labelBackgroundColor=none;fontColor=#1D3557;rounded=0;" parent="1" vertex="1">
          <mxGeometry x="40" y="440" width="160" height="150" as="geometry" />
        </mxCell>
        <mxCell id="R7PA764vLQKFZpUxYxBT-130" value="" style="shape=tableRow;horizontal=0;startSize=0;swimlaneHead=0;swimlaneBody=0;fillColor=#A8DADC;collapsible=0;dropTarget=0;points=[[0,0.5],[1,0.5]];portConstraint=eastwest;top=0;left=0;right=0;bottom=1;strokeColor=#457B9D;labelBackgroundColor=none;fontColor=#1D3557;rounded=0;" parent="R7PA764vLQKFZpUxYxBT-129" vertex="1">
          <mxGeometry y="30" width="160" height="30" as="geometry" />
        </mxCell>
        <mxCell id="R7PA764vLQKFZpUxYxBT-131" value="PK" style="shape=partialRectangle;connectable=0;fillColor=#A8DADC;top=0;left=0;bottom=0;right=0;fontStyle=1;overflow=hidden;whiteSpace=wrap;html=1;strokeColor=#457B9D;labelBackgroundColor=none;fontColor=#1D3557;rounded=0;" parent="R7PA764vLQKFZpUxYxBT-130" vertex="1">
          <mxGeometry width="30" height="30" as="geometry">
            <mxRectangle width="30" height="30" as="alternateBounds" />
          </mxGeometry>
        </mxCell>
        <mxCell id="R7PA764vLQKFZpUxYxBT-132" value="leave_ID" style="shape=partialRectangle;connectable=0;fillColor=#A8DADC;top=0;left=0;bottom=0;right=0;align=left;spacingLeft=6;fontStyle=5;overflow=hidden;whiteSpace=wrap;html=1;strokeColor=#457B9D;labelBackgroundColor=none;fontColor=#1D3557;rounded=0;" parent="R7PA764vLQKFZpUxYxBT-130" vertex="1">
          <mxGeometry x="30" width="130" height="30" as="geometry">
            <mxRectangle width="130" height="30" as="alternateBounds" />
          </mxGeometry>
        </mxCell>
        <mxCell id="R7PA764vLQKFZpUxYxBT-133" value="" style="shape=tableRow;horizontal=0;startSize=0;swimlaneHead=0;swimlaneBody=0;fillColor=#A8DADC;collapsible=0;dropTarget=0;points=[[0,0.5],[1,0.5]];portConstraint=eastwest;top=0;left=0;right=0;bottom=0;strokeColor=#457B9D;labelBackgroundColor=none;fontColor=#1D3557;rounded=0;" parent="R7PA764vLQKFZpUxYxBT-129" vertex="1">
          <mxGeometry y="60" width="160" height="30" as="geometry" />
        </mxCell>
        <mxCell id="R7PA764vLQKFZpUxYxBT-134" value="FK" style="shape=partialRectangle;connectable=0;fillColor=#A8DADC;top=0;left=0;bottom=0;right=0;editable=1;overflow=hidden;whiteSpace=wrap;html=1;strokeColor=#457B9D;labelBackgroundColor=none;fontColor=#1D3557;rounded=0;" parent="R7PA764vLQKFZpUxYxBT-133" vertex="1">
          <mxGeometry width="30" height="30" as="geometry">
            <mxRectangle width="30" height="30" as="alternateBounds" />
          </mxGeometry>
        </mxCell>
        <mxCell id="R7PA764vLQKFZpUxYxBT-135" value="employee_ID" style="shape=partialRectangle;connectable=0;fillColor=#A8DADC;top=0;left=0;bottom=0;right=0;align=left;spacingLeft=6;overflow=hidden;whiteSpace=wrap;html=1;strokeColor=#457B9D;labelBackgroundColor=none;fontColor=#1D3557;rounded=0;" parent="R7PA764vLQKFZpUxYxBT-133" vertex="1">
          <mxGeometry x="30" width="130" height="30" as="geometry">
            <mxRectangle width="130" height="30" as="alternateBounds" />
          </mxGeometry>
        </mxCell>
        <mxCell id="R7PA764vLQKFZpUxYxBT-136" value="" style="shape=tableRow;horizontal=0;startSize=0;swimlaneHead=0;swimlaneBody=0;fillColor=#A8DADC;collapsible=0;dropTarget=0;points=[[0,0.5],[1,0.5]];portConstraint=eastwest;top=0;left=0;right=0;bottom=0;strokeColor=#457B9D;labelBackgroundColor=none;fontColor=#1D3557;rounded=0;" parent="R7PA764vLQKFZpUxYxBT-129" vertex="1">
          <mxGeometry y="90" width="160" height="30" as="geometry" />
        </mxCell>
        <mxCell id="R7PA764vLQKFZpUxYxBT-137" value="FK" style="shape=partialRectangle;connectable=0;fillColor=#A8DADC;top=0;left=0;bottom=0;right=0;editable=1;overflow=hidden;whiteSpace=wrap;html=1;strokeColor=#457B9D;labelBackgroundColor=none;fontColor=#1D3557;rounded=0;" parent="R7PA764vLQKFZpUxYxBT-136" vertex="1">
          <mxGeometry width="30" height="30" as="geometry">
            <mxRectangle width="30" height="30" as="alternateBounds" />
          </mxGeometry>
        </mxCell>
        <mxCell id="R7PA764vLQKFZpUxYxBT-138" value="job_ID" style="shape=partialRectangle;connectable=0;fillColor=#A8DADC;top=0;left=0;bottom=0;right=0;align=left;spacingLeft=6;overflow=hidden;whiteSpace=wrap;html=1;strokeColor=#457B9D;labelBackgroundColor=none;fontColor=#1D3557;rounded=0;" parent="R7PA764vLQKFZpUxYxBT-136" vertex="1">
          <mxGeometry x="30" width="130" height="30" as="geometry">
            <mxRectangle width="130" height="30" as="alternateBounds" />
          </mxGeometry>
        </mxCell>
        <mxCell id="R7PA764vLQKFZpUxYxBT-195" value="" style="shape=tableRow;horizontal=0;startSize=0;swimlaneHead=0;swimlaneBody=0;fillColor=#A8DADC;collapsible=0;dropTarget=0;points=[[0,0.5],[1,0.5]];portConstraint=eastwest;top=0;left=0;right=0;bottom=0;strokeColor=#457B9D;labelBackgroundColor=none;fontColor=#1D3557;rounded=0;" parent="R7PA764vLQKFZpUxYxBT-129" vertex="1">
          <mxGeometry y="120" width="160" height="30" as="geometry" />
        </mxCell>
        <mxCell id="R7PA764vLQKFZpUxYxBT-196" value="" style="shape=partialRectangle;connectable=0;fillColor=#A8DADC;top=0;left=0;bottom=0;right=0;editable=1;overflow=hidden;strokeColor=#457B9D;labelBackgroundColor=none;fontColor=#1D3557;rounded=0;" parent="R7PA764vLQKFZpUxYxBT-195" vertex="1">
          <mxGeometry width="30" height="30" as="geometry">
            <mxRectangle width="30" height="30" as="alternateBounds" />
          </mxGeometry>
        </mxCell>
        <mxCell id="R7PA764vLQKFZpUxYxBT-197" value="date" style="shape=partialRectangle;connectable=0;fillColor=#A8DADC;top=0;left=0;bottom=0;right=0;align=left;spacingLeft=6;overflow=hidden;strokeColor=#457B9D;labelBackgroundColor=none;fontColor=#1D3557;rounded=0;" parent="R7PA764vLQKFZpUxYxBT-195" vertex="1">
          <mxGeometry x="30" width="130" height="30" as="geometry">
            <mxRectangle width="130" height="30" as="alternateBounds" />
          </mxGeometry>
        </mxCell>
        <mxCell id="R7PA764vLQKFZpUxYxBT-146" value="Duty Duration" style="shape=table;startSize=30;container=1;collapsible=1;childLayout=tableLayout;fixedRows=1;rowLines=0;fontStyle=1;align=center;resizeLast=1;html=1;fillColor=#A8DADC;strokeColor=#457B9D;labelBackgroundColor=none;fontColor=#1D3557;rounded=0;" parent="1" vertex="1">
          <mxGeometry x="330" y="140" width="160" height="180" as="geometry" />
        </mxCell>
        <mxCell id="R7PA764vLQKFZpUxYxBT-147" value="" style="shape=tableRow;horizontal=0;startSize=0;swimlaneHead=0;swimlaneBody=0;fillColor=#A8DADC;collapsible=0;dropTarget=0;points=[[0,0.5],[1,0.5]];portConstraint=eastwest;top=0;left=0;right=0;bottom=1;strokeColor=#457B9D;labelBackgroundColor=none;fontColor=#1D3557;rounded=0;" parent="R7PA764vLQKFZpUxYxBT-146" vertex="1">
          <mxGeometry y="30" width="160" height="30" as="geometry" />
        </mxCell>
        <mxCell id="R7PA764vLQKFZpUxYxBT-148" value="PK" style="shape=partialRectangle;connectable=0;fillColor=#A8DADC;top=0;left=0;bottom=0;right=0;fontStyle=1;overflow=hidden;whiteSpace=wrap;html=1;strokeColor=#457B9D;labelBackgroundColor=none;fontColor=#1D3557;rounded=0;" parent="R7PA764vLQKFZpUxYxBT-147" vertex="1">
          <mxGeometry width="30" height="30" as="geometry">
            <mxRectangle width="30" height="30" as="alternateBounds" />
          </mxGeometry>
        </mxCell>
        <mxCell id="R7PA764vLQKFZpUxYxBT-149" value="duty_ID" style="shape=partialRectangle;connectable=0;fillColor=#A8DADC;top=0;left=0;bottom=0;right=0;align=left;spacingLeft=6;fontStyle=5;overflow=hidden;whiteSpace=wrap;html=1;strokeColor=#457B9D;labelBackgroundColor=none;fontColor=#1D3557;rounded=0;" parent="R7PA764vLQKFZpUxYxBT-147" vertex="1">
          <mxGeometry x="30" width="130" height="30" as="geometry">
            <mxRectangle width="130" height="30" as="alternateBounds" />
          </mxGeometry>
        </mxCell>
        <mxCell id="R7PA764vLQKFZpUxYxBT-150" value="" style="shape=tableRow;horizontal=0;startSize=0;swimlaneHead=0;swimlaneBody=0;fillColor=#A8DADC;collapsible=0;dropTarget=0;points=[[0,0.5],[1,0.5]];portConstraint=eastwest;top=0;left=0;right=0;bottom=0;strokeColor=#457B9D;labelBackgroundColor=none;fontColor=#1D3557;rounded=0;" parent="R7PA764vLQKFZpUxYxBT-146" vertex="1">
          <mxGeometry y="60" width="160" height="30" as="geometry" />
        </mxCell>
        <mxCell id="R7PA764vLQKFZpUxYxBT-151" value="FK" style="shape=partialRectangle;connectable=0;fillColor=#A8DADC;top=0;left=0;bottom=0;right=0;editable=1;overflow=hidden;whiteSpace=wrap;html=1;strokeColor=#457B9D;labelBackgroundColor=none;fontColor=#1D3557;rounded=0;" parent="R7PA764vLQKFZpUxYxBT-150" vertex="1">
          <mxGeometry width="30" height="30" as="geometry">
            <mxRectangle width="30" height="30" as="alternateBounds" />
          </mxGeometry>
        </mxCell>
        <mxCell id="R7PA764vLQKFZpUxYxBT-152" value="employee_ID" style="shape=partialRectangle;connectable=0;fillColor=#A8DADC;top=0;left=0;bottom=0;right=0;align=left;spacingLeft=6;overflow=hidden;whiteSpace=wrap;html=1;strokeColor=#457B9D;labelBackgroundColor=none;fontColor=#1D3557;rounded=0;" parent="R7PA764vLQKFZpUxYxBT-150" vertex="1">
          <mxGeometry x="30" width="130" height="30" as="geometry">
            <mxRectangle width="130" height="30" as="alternateBounds" />
          </mxGeometry>
        </mxCell>
        <mxCell id="R7PA764vLQKFZpUxYxBT-153" value="" style="shape=tableRow;horizontal=0;startSize=0;swimlaneHead=0;swimlaneBody=0;fillColor=#A8DADC;collapsible=0;dropTarget=0;points=[[0,0.5],[1,0.5]];portConstraint=eastwest;top=0;left=0;right=0;bottom=0;strokeColor=#457B9D;labelBackgroundColor=none;fontColor=#1D3557;rounded=0;" parent="R7PA764vLQKFZpUxYxBT-146" vertex="1">
          <mxGeometry y="90" width="160" height="30" as="geometry" />
        </mxCell>
        <mxCell id="R7PA764vLQKFZpUxYxBT-154" value="FK" style="shape=partialRectangle;connectable=0;fillColor=#A8DADC;top=0;left=0;bottom=0;right=0;editable=1;overflow=hidden;whiteSpace=wrap;html=1;strokeColor=#457B9D;labelBackgroundColor=none;fontColor=#1D3557;rounded=0;" parent="R7PA764vLQKFZpUxYxBT-153" vertex="1">
          <mxGeometry width="30" height="30" as="geometry">
            <mxRectangle width="30" height="30" as="alternateBounds" />
          </mxGeometry>
        </mxCell>
        <mxCell id="R7PA764vLQKFZpUxYxBT-155" value="job_ID" style="shape=partialRectangle;connectable=0;fillColor=#A8DADC;top=0;left=0;bottom=0;right=0;align=left;spacingLeft=6;overflow=hidden;whiteSpace=wrap;html=1;strokeColor=#457B9D;labelBackgroundColor=none;fontColor=#1D3557;rounded=0;" parent="R7PA764vLQKFZpUxYxBT-153" vertex="1">
          <mxGeometry x="30" width="130" height="30" as="geometry">
            <mxRectangle width="130" height="30" as="alternateBounds" />
          </mxGeometry>
        </mxCell>
        <mxCell id="R7PA764vLQKFZpUxYxBT-168" value="" style="shape=tableRow;horizontal=0;startSize=0;swimlaneHead=0;swimlaneBody=0;fillColor=#A8DADC;collapsible=0;dropTarget=0;points=[[0,0.5],[1,0.5]];portConstraint=eastwest;top=0;left=0;right=0;bottom=0;strokeColor=#457B9D;labelBackgroundColor=none;fontColor=#1D3557;rounded=0;" parent="R7PA764vLQKFZpUxYxBT-146" vertex="1">
          <mxGeometry y="120" width="160" height="30" as="geometry" />
        </mxCell>
        <mxCell id="R7PA764vLQKFZpUxYxBT-169" value="" style="shape=partialRectangle;connectable=0;fillColor=#A8DADC;top=0;left=0;bottom=0;right=0;editable=1;overflow=hidden;strokeColor=#457B9D;labelBackgroundColor=none;fontColor=#1D3557;rounded=0;" parent="R7PA764vLQKFZpUxYxBT-168" vertex="1">
          <mxGeometry width="30" height="30" as="geometry">
            <mxRectangle width="30" height="30" as="alternateBounds" />
          </mxGeometry>
        </mxCell>
        <mxCell id="R7PA764vLQKFZpUxYxBT-170" value="duration" style="shape=partialRectangle;connectable=0;fillColor=#A8DADC;top=0;left=0;bottom=0;right=0;align=left;spacingLeft=6;overflow=hidden;strokeColor=#457B9D;labelBackgroundColor=none;fontColor=#1D3557;rounded=0;" parent="R7PA764vLQKFZpUxYxBT-168" vertex="1">
          <mxGeometry x="30" width="130" height="30" as="geometry">
            <mxRectangle width="130" height="30" as="alternateBounds" />
          </mxGeometry>
        </mxCell>
        <mxCell id="R7PA764vLQKFZpUxYxBT-172" value="" style="shape=tableRow;horizontal=0;startSize=0;swimlaneHead=0;swimlaneBody=0;fillColor=#A8DADC;collapsible=0;dropTarget=0;points=[[0,0.5],[1,0.5]];portConstraint=eastwest;top=0;left=0;right=0;bottom=0;strokeColor=#457B9D;labelBackgroundColor=none;fontColor=#1D3557;rounded=0;" parent="R7PA764vLQKFZpUxYxBT-146" vertex="1">
          <mxGeometry y="150" width="160" height="30" as="geometry" />
        </mxCell>
        <mxCell id="R7PA764vLQKFZpUxYxBT-173" value="" style="shape=partialRectangle;connectable=0;fillColor=#A8DADC;top=0;left=0;bottom=0;right=0;editable=1;overflow=hidden;strokeColor=#457B9D;labelBackgroundColor=none;fontColor=#1D3557;rounded=0;" parent="R7PA764vLQKFZpUxYxBT-172" vertex="1">
          <mxGeometry width="30" height="30" as="geometry">
            <mxRectangle width="30" height="30" as="alternateBounds" />
          </mxGeometry>
        </mxCell>
        <mxCell id="R7PA764vLQKFZpUxYxBT-174" value="date" style="shape=partialRectangle;connectable=0;fillColor=#A8DADC;top=0;left=0;bottom=0;right=0;align=left;spacingLeft=6;overflow=hidden;strokeColor=#457B9D;labelBackgroundColor=none;fontColor=#1D3557;rounded=0;" parent="R7PA764vLQKFZpUxYxBT-172" vertex="1">
          <mxGeometry x="30" width="130" height="30" as="geometry">
            <mxRectangle width="130" height="30" as="alternateBounds" />
          </mxGeometry>
        </mxCell>
        <mxCell id="R7PA764vLQKFZpUxYxBT-183" value="" style="edgeStyle=entityRelationEdgeStyle;fontSize=12;html=1;endArrow=ERoneToMany;rounded=0;entryX=1;entryY=0.5;entryDx=0;entryDy=0;fillColor=#A8DADC;strokeColor=#457B9D;labelBackgroundColor=none;fontColor=default;" parent="1" target="R7PA764vLQKFZpUxYxBT-130" edge="1">
          <mxGeometry width="100" height="100" relative="1" as="geometry">
            <mxPoint x="210" y="130" as="sourcePoint" />
            <mxPoint x="230" y="530" as="targetPoint" />
            <Array as="points">
              <mxPoint x="200" y="430" />
              <mxPoint x="190" y="430" />
            </Array>
          </mxGeometry>
        </mxCell>
        <mxCell id="R7PA764vLQKFZpUxYxBT-185" value="" style="edgeStyle=orthogonalEdgeStyle;fontSize=12;html=1;endArrow=ERoneToMany;rounded=0;entryX=1;entryY=0.5;entryDx=0;entryDy=0;fillColor=#A8DADC;strokeColor=#457B9D;labelBackgroundColor=none;fontColor=default;" parent="1" target="R7PA764vLQKFZpUxYxBT-53" edge="1">
          <mxGeometry width="100" height="100" relative="1" as="geometry">
            <mxPoint x="20" y="610" as="sourcePoint" />
            <mxPoint x="830" y="610" as="targetPoint" />
            <Array as="points">
              <mxPoint x="20" y="650" />
              <mxPoint x="830" y="650" />
              <mxPoint x="830" y="205" />
            </Array>
          </mxGeometry>
        </mxCell>
        <mxCell id="R7PA764vLQKFZpUxYxBT-188" value="" style="endArrow=none;html=1;rounded=0;elbow=vertical;fillColor=#A8DADC;strokeColor=#457B9D;labelBackgroundColor=none;fontColor=default;" parent="1" edge="1">
          <mxGeometry width="50" height="50" relative="1" as="geometry">
            <mxPoint x="20" y="480" as="sourcePoint" />
            <mxPoint x="40" y="480" as="targetPoint" />
          </mxGeometry>
        </mxCell>
        <mxCell id="R7PA764vLQKFZpUxYxBT-189" value="" style="endArrow=none;html=1;rounded=0;elbow=vertical;fillColor=#A8DADC;strokeColor=#457B9D;labelBackgroundColor=none;fontColor=default;" parent="1" edge="1">
          <mxGeometry width="50" height="50" relative="1" as="geometry">
            <mxPoint x="20" y="610" as="sourcePoint" />
            <mxPoint x="20" y="480" as="targetPoint" />
          </mxGeometry>
        </mxCell>
        <mxCell id="R7PA764vLQKFZpUxYxBT-198" value="" style="edgeStyle=orthogonalEdgeStyle;fontSize=12;html=1;endArrow=ERone;endFill=1;rounded=0;exitX=1;exitY=0.5;exitDx=0;exitDy=0;elbow=vertical;entryX=0;entryY=0.5;entryDx=0;entryDy=0;fillColor=#A8DADC;strokeColor=#457B9D;labelBackgroundColor=none;fontColor=default;" parent="1" source="R7PA764vLQKFZpUxYxBT-136" target="R7PA764vLQKFZpUxYxBT-85" edge="1">
          <mxGeometry width="100" height="100" relative="1" as="geometry">
            <mxPoint x="400" y="530" as="sourcePoint" />
            <mxPoint x="600" y="500" as="targetPoint" />
            <Array as="points">
              <mxPoint x="260" y="545" />
              <mxPoint x="260" y="430" />
              <mxPoint x="530" y="430" />
              <mxPoint x="530" y="495" />
            </Array>
          </mxGeometry>
        </mxCell>
        <mxCell id="R7PA764vLQKFZpUxYxBT-200" value="" style="edgeStyle=orthogonalEdgeStyle;fontSize=12;html=1;endArrow=ERmany;rounded=0;exitX=0;exitY=0.101;exitDx=0;exitDy=0;exitPerimeter=0;fillColor=#A8DADC;strokeColor=#457B9D;labelBackgroundColor=none;fontColor=default;" parent="1" edge="1">
          <mxGeometry width="100" height="100" relative="1" as="geometry">
            <mxPoint x="305.5" y="460" as="sourcePoint" />
            <mxPoint x="620" y="559.9" as="targetPoint" />
            <Array as="points">
              <mxPoint x="280" y="460" />
              <mxPoint x="280" y="560" />
            </Array>
          </mxGeometry>
        </mxCell>
        <mxCell id="R7PA764vLQKFZpUxYxBT-201" value="" style="edgeStyle=orthogonalEdgeStyle;fontSize=12;html=1;endArrow=ERoneToMany;rounded=0;elbow=vertical;entryX=1;entryY=0.5;entryDx=0;entryDy=0;exitX=0.94;exitY=-0.002;exitDx=0;exitDy=0;exitPerimeter=0;fillColor=#A8DADC;strokeColor=#457B9D;labelBackgroundColor=none;fontColor=default;" parent="1" source="R7PA764vLQKFZpUxYxBT-1" target="R7PA764vLQKFZpUxYxBT-41" edge="1">
          <mxGeometry width="100" height="100" relative="1" as="geometry">
            <mxPoint x="200" y="60" as="sourcePoint" />
            <mxPoint x="830.4571010044643" y="70" as="targetPoint" />
            <Array as="points">
              <mxPoint x="200" y="60" />
              <mxPoint x="830" y="60" />
              <mxPoint x="830" y="145" />
            </Array>
          </mxGeometry>
        </mxCell>
        <mxCell id="R7PA764vLQKFZpUxYxBT-202" value="" style="edgeStyle=orthogonalEdgeStyle;fontSize=12;html=1;endArrow=ERoneToMany;rounded=0;elbow=vertical;entryX=0;entryY=0.5;entryDx=0;entryDy=0;fillColor=#A8DADC;strokeColor=#457B9D;labelBackgroundColor=none;fontColor=default;" parent="1" target="R7PA764vLQKFZpUxYxBT-150" edge="1">
          <mxGeometry width="100" height="100" relative="1" as="geometry">
            <mxPoint x="210" y="100" as="sourcePoint" />
            <mxPoint x="320" y="220" as="targetPoint" />
            <Array as="points">
              <mxPoint x="300" y="100" />
              <mxPoint x="300" y="215" />
            </Array>
          </mxGeometry>
        </mxCell>
        <mxCell id="R7PA764vLQKFZpUxYxBT-203" value="" style="edgeStyle=orthogonalEdgeStyle;fontSize=12;html=1;endArrow=ERoneToMany;rounded=0;elbow=vertical;exitX=1.001;exitY=0.861;exitDx=0;exitDy=0;exitPerimeter=0;fillColor=#A8DADC;strokeColor=#457B9D;labelBackgroundColor=none;fontColor=default;" parent="1" source="R7PA764vLQKFZpUxYxBT-147" target="R7PA764vLQKFZpUxYxBT-44" edge="1">
          <mxGeometry width="100" height="100" relative="1" as="geometry">
            <mxPoint x="530" y="175" as="sourcePoint" />
            <mxPoint x="480" y="140" as="targetPoint" />
            <Array as="points" />
          </mxGeometry>
        </mxCell>
        <mxCell id="R7PA764vLQKFZpUxYxBT-205" value="" style="edgeStyle=orthogonalEdgeStyle;fontSize=12;html=1;endArrow=ERone;endFill=1;rounded=0;elbow=vertical;entryX=0.11;entryY=0.001;entryDx=0;entryDy=0;entryPerimeter=0;fillColor=#A8DADC;strokeColor=#457B9D;labelBackgroundColor=none;fontColor=default;" parent="1" target="R7PA764vLQKFZpUxYxBT-84" edge="1">
          <mxGeometry width="100" height="100" relative="1" as="geometry">
            <mxPoint x="490" y="240" as="sourcePoint" />
            <mxPoint x="630" y="430" as="targetPoint" />
            <Array as="points">
              <mxPoint x="490" y="240" />
              <mxPoint x="550" y="240" />
              <mxPoint x="550" y="410" />
              <mxPoint x="640" y="410" />
            </Array>
          </mxGeometry>
        </mxCell>
        <mxCell id="R7PA764vLQKFZpUxYxBT-206" value="" style="edgeStyle=orthogonalEdgeStyle;fontSize=12;html=1;endArrow=ERoneToMany;rounded=0;elbow=vertical;entryX=0;entryY=0.5;entryDx=0;entryDy=0;exitX=0.394;exitY=-0.002;exitDx=0;exitDy=0;exitPerimeter=0;fillColor=#A8DADC;strokeColor=#457B9D;labelBackgroundColor=none;fontColor=default;" parent="1" source="R7PA764vLQKFZpUxYxBT-84" target="R7PA764vLQKFZpUxYxBT-49" edge="1">
          <mxGeometry width="100" height="100" relative="1" as="geometry">
            <mxPoint x="690" y="370" as="sourcePoint" />
            <mxPoint x="600" y="230" as="targetPoint" />
            <Array as="points">
              <mxPoint x="691" y="360" />
              <mxPoint x="590" y="360" />
              <mxPoint x="590" y="235" />
            </Array>
          </mxGeometry>
        </mxCell>
      </root>
    </mxGraphModel>
  </diagram>
</mxfile>
